<svg width="188" height="43" viewBox="0 0 188 43" fill="none" xmlns="http://www.w3.org/2000/svg">
<path d="M187.991 4.08063C187.991 1.84166 186.153 0.0386885 183.915 0.0813562L4.56377 3.49984C2.14337 3.54597 0.31839 5.71469 0.686523 8.10738L5.53371 39.6119C5.83392 41.5632 7.51291 43.0037 9.48718 43.0037H171.556C172.384 43.0037 173.193 42.7461 173.869 42.2667L186.305 33.4494C187.362 32.6994 187.991 31.4831 187.991 30.1864V4.08063Z" fill="#27FFFF"/>
<path d="M42.966 27.0037V19.0837L42.216 18.1087H40.146L38.421 26.5087H36.921L35.196 18.1087H33.111L32.376 19.0837V27.0037H30.741V18.5287L32.301 16.5037H36.531L37.671 22.0237L38.796 16.5037H43.041L44.601 18.5287V27.0037H42.966ZM54.7122 27.0037H48.6522L47.1072 24.9787V18.5287L48.6522 16.5037H54.7122L56.2272 18.5287V24.9787L54.7122 27.0037ZM54.6372 19.0837L53.9172 18.1087H49.4322L48.6972 19.0837V24.4237L49.4322 25.3837H53.9172L54.6372 24.4237V19.0837ZM65.0124 22.5637H64.8774L66.7824 27.0037H65.0274L63.1524 22.5637H60.3024V27.0037H58.7274V16.5037H65.9574L66.7674 18.4387V20.0287L65.0124 22.5637ZM65.1774 18.7687L64.9074 18.1087H60.3174V20.9587H64.2024L65.1774 19.5187V18.7687ZM70.632 27.0037L69.117 24.9637V18.5437L70.632 16.5037H75.687V18.1087H71.412L70.707 19.0987V20.9737H74.712V22.5937H70.707V24.4087L71.412 25.3837H75.687V27.0037H70.632ZM92.4577 27.0037H85.0477V16.5037H92.4577L93.9727 18.5287V24.9787L92.4577 27.0037ZM92.3677 19.0837L91.6477 18.1087H86.6377V25.3837H91.6477L92.3677 24.4237V19.0837ZM97.8312 27.0037L96.3162 24.9637V18.5437L97.8312 16.5037H102.886V18.1087H98.6112L97.9062 19.0987V20.9737H101.911V22.5937H97.9062V24.4087L98.6112 25.3837H102.886V27.0037H97.8312ZM110.686 18.1087L109.996 19.0837V27.0037H108.406V19.0837L107.686 18.1087H105.091V16.5037H108.466L109.186 17.4637L109.921 16.5037H113.326V18.1087H110.686ZM124.2 21.7387V27.0037H122.61V23.6137H117.48V27.0037H115.905V21.7387L119.145 16.5037H120.735L124.2 21.7387ZM117.615 21.9937L122.46 22.0237L119.97 18.2437L117.615 21.9937ZM126.548 27.0037V16.5037H128.093V27.0037H126.548ZM132.065 27.0037L130.595 24.9787V16.5037H132.155V24.4237L132.83 25.3837H136.265V27.0037H132.065ZM144.84 27.0037H140.58L138.315 25.0087V23.6287H139.905V24.2887L141.165 25.3837H144.255L145.56 24.2737V23.2387L144.855 22.6387H140.025L138.315 21.1687V18.4687L140.625 16.5037H144.885L147.15 18.4837V20.1037H145.56V19.2037L144.285 18.1087H141.195L139.905 19.2037V20.4037L140.61 21.0187H145.425L147.15 22.4887V25.0387L144.84 27.0037Z" fill="black"/>
</svg>
