<svg width="188" height="43" viewBox="0 0 188 43" fill="none" xmlns="http://www.w3.org/2000/svg">
<path d="M187.992 4.07697C187.992 1.838 186.154 0.0350264 183.915 0.077694L4.56425 3.49618C2.14386 3.54231 0.318878 5.71103 0.687012 8.10372L5.53419 39.6083C5.83441 41.5596 7.5134 43 9.48767 43H171.556C172.385 43 173.193 42.7425 173.87 42.263L186.305 33.4457C187.363 32.6957 187.992 31.4794 187.992 30.1827V4.07697Z" fill="#55FFFF"/>
<path d="M37.0265 22.56H36.8915L38.7965 27H37.0415L35.1665 22.56H32.3165V27H30.7415V16.5H37.9715L38.7815 18.435V20.025L37.0265 22.56ZM37.1915 18.765L36.9215 18.105H32.3315V20.955H36.2165L37.1915 19.515V18.765ZM42.6462 27L41.1312 24.96V18.54L42.6462 16.5H47.7012V18.105H43.4262L42.7212 19.095V20.97H46.7262V22.59H42.7212V24.405L43.4262 25.38H47.7012V27H42.6462ZM57.526 27H51.451L49.906 24.96V18.54L51.451 16.5H57.526L59.101 18.585L57.826 19.56L56.731 18.105H52.231L51.496 19.095V24.405L52.231 25.38H56.731L57.466 24.405V23.745H55.501V22.11H59.071V24.96L57.526 27ZM61.4271 27V16.5H62.9721V27H61.4271ZM71.8489 27H67.5889L65.3239 25.005V23.625H66.9139V24.285L68.1739 25.38H71.2639L72.5689 24.27V23.235L71.8639 22.635H67.0339L65.3239 21.165V18.465L67.6339 16.5H71.8939L74.1589 18.48V20.1H72.5689V19.2L71.2939 18.105H68.2039L66.9139 19.2V20.4L67.6189 21.015H72.4339L74.1589 22.485V25.035L71.8489 27ZM81.9531 18.105L81.2631 19.08V27H79.6731V19.08L78.9531 18.105H76.3581V16.5H79.7331L80.4531 17.46L81.1881 16.5H84.5931V18.105H81.9531ZM88.53 27L87.015 24.96V18.54L88.53 16.5H93.585V18.105H89.31L88.605 19.095V20.97H92.61V22.59H88.605V24.405L89.31 25.38H93.585V27H88.53ZM102.225 22.56H102.09L103.995 27H102.24L100.365 22.56H97.5148V27H95.9398V16.5H103.17L103.98 18.435V20.025L102.225 22.56ZM102.39 18.765L102.12 18.105H97.5298V20.955H101.415L102.39 19.515V18.765ZM126.296 27L124.091 18.12H122.651L121.916 19.095V26.985H120.341V18.54L121.841 16.515H125.336L127.526 25.38H127.556V16.5H129.131V27H126.296ZM139.229 27H133.169L131.624 24.975V18.525L133.169 16.5H139.229L140.744 18.525V24.975L139.229 27ZM139.154 19.08L138.434 18.105H133.949L133.214 19.08V24.42L133.949 25.38H138.434L139.154 24.42V19.08ZM155.634 27H151.149L150.024 21.48L148.884 27H144.414L143.094 21.81V16.5H144.729V21.6L145.689 25.38H147.549L149.259 16.995H150.774L152.499 25.38H154.359L155.319 21.6V16.5H156.954V21.81L155.634 27Z" fill="#003939"/>
</svg>
