<svg width="1433" height="649" viewBox="0 0 1433 649" fill="none" xmlns="http://www.w3.org/2000/svg">
<g opacity="0.8" clip-path="url(#clip0_190_20046)">
<path d="M-46.5521 426.654C86.265 308.976 291.147 148.463 571.76 390.423" stroke="#55FFFF" stroke-width="100"/>
<path d="M-46.5521 426.654C86.265 308.976 291.147 148.463 571.76 390.423" stroke="white" stroke-width="100"/>
<path d="M557.731 378.221C697.26 496.496 875.711 705.194 1141.83 426.317" stroke="#55FFFF" stroke-width="100"/>
<path d="M557.731 378.221C697.26 496.496 875.711 705.194 1141.83 426.317" stroke="white" stroke-width="100"/>
<path d="M1680.12 482.744C1540.05 373.426 1358.66 177.873 1111.32 458.995" stroke="white" stroke-width="100"/>
<path d="M61.5914 346.388C57.6482 348.481 52.4778 347.339 50.0254 342.718C47.5954 338.138 49.5907 333.194 53.5339 331.102C55.9719 329.808 58.7067 329.688 61.176 331.013L60.0282 333.715C58.3741 332.799 56.5461 332.682 54.8501 333.582C52.2637 334.955 50.968 338.196 52.633 341.334C54.3204 344.514 57.6887 345.28 60.3175 343.885C61.9499 343.019 63.0315 341.576 63.1444 339.587L65.9849 340.28C65.6007 343.038 63.987 345.117 61.5914 346.388Z" fill="black"/>
<path d="M80.2735 337.058C76.1918 338.981 71.0919 337.616 68.8621 332.883C66.6527 328.193 68.8273 323.349 72.9091 321.426C76.9691 319.513 82.1112 320.911 84.3205 325.6C86.5503 330.333 84.3335 335.145 80.2735 337.058ZM71.5326 331.625C73.0668 334.882 76.3846 335.786 79.0768 334.518C81.7473 333.259 83.1843 330.115 81.65 326.858C80.1362 323.645 76.7763 322.708 74.1058 323.966C71.4136 325.234 70.0187 328.412 71.5326 331.625Z" fill="black"/>
<path d="M93.9765 330.582L87.4807 315.089L90.1146 313.985L95.5618 326.977L101.914 324.314L102.963 326.815L93.9765 330.582Z" fill="black"/>
<path d="M109.597 324.178L103.675 308.457L106.348 307.45L111.314 320.634L117.76 318.206L118.716 320.744L109.597 324.178Z" fill="black"/>
<path d="M124.174 318.755L124.034 301.101L127.201 300.051L138.024 314.162L135.2 315.099L132.738 311.717L126.815 313.682L126.953 317.833L124.174 318.755ZM126.736 310.851L131.042 309.423L126.498 303.192L126.736 310.851Z" fill="black"/>
<path d="M144.333 312.243L139.723 296.088L146.785 294.072C149.647 293.255 151.637 294.809 152.197 296.77C152.764 298.755 151.893 301.125 149.031 301.942L144.715 303.174L144.913 303.866L149.459 302.568C152.182 301.791 154.084 303.295 154.624 305.187C155.171 307.103 154.349 309.384 151.626 310.161L144.333 312.243ZM146.335 308.851L150.905 307.547C151.736 307.31 151.957 306.598 151.786 305.998C151.621 305.421 151.057 304.933 150.227 305.17L145.657 306.474L146.335 308.851ZM143.971 300.566L148.31 299.327C149.279 299.051 149.549 298.25 149.358 297.581C149.174 296.934 148.521 296.397 147.552 296.673L143.213 297.912L143.971 300.566Z" fill="black"/>
<path d="M170.049 305.64C165.659 306.68 160.95 304.293 159.744 299.202C158.549 294.158 161.676 289.866 166.066 288.826C170.434 287.791 175.177 290.219 176.372 295.264C177.578 300.355 174.416 304.606 170.049 305.64ZM162.616 298.522C163.446 302.025 166.506 303.594 169.402 302.908C172.274 302.228 174.329 299.447 173.499 295.944C172.68 292.488 169.586 290.878 166.714 291.558C163.818 292.244 161.798 295.066 162.616 298.522Z" fill="black"/>
<path d="M184.784 302.12L181.658 285.613L188.167 284.381C191.397 283.769 193.416 285.658 193.827 287.828C194.242 290.021 193.054 292.517 189.823 293.129L186.121 293.83L186.255 294.538L193.4 293.185L196.716 299.86L193.91 300.392L191.853 296.238L186.76 297.202L187.59 301.588L184.784 302.12ZM185.616 291.166L189.342 290.46C190.616 290.219 191.092 289.25 190.926 288.377C190.766 287.528 189.968 286.8 188.695 287.041L184.969 287.746L185.616 291.166Z" fill="black"/>
<path d="M202.04 298.941L204.981 281.534L208.282 281.052L216.479 296.833L213.534 297.263L211.7 293.505L205.526 294.406L204.937 298.518L202.04 298.941ZM205.941 291.605L210.43 290.949L207.042 284.022L205.941 291.605Z" fill="black"/>
<path d="M226.352 295.704L224.876 281.694L220.484 282.156L220.2 279.459L231.824 278.235L232.108 280.932L227.716 281.395L229.192 295.405L226.352 295.704Z" fill="black"/>
<path d="M239.833 294.414L238.707 277.651L249.315 276.939L249.497 279.645L241.738 280.166L242.02 284.356L249.778 283.835L249.96 286.541L242.202 287.062L242.501 291.516L250.259 290.995L250.441 293.701L239.833 294.414Z" fill="black"/>
<path d="M260.15 293.536C258.759 293.583 257.425 292.475 257.373 290.94C257.322 289.404 258.579 288.234 259.971 288.187C261.362 288.14 262.671 289.225 262.722 290.76C262.774 292.295 261.541 293.489 260.15 293.536Z" fill="black"/>
<path d="M290.137 293.487C285.675 293.357 281.745 289.808 281.897 284.579C282.049 279.397 286.227 276.085 290.689 276.216C293.448 276.296 295.885 277.544 297.376 279.917L295.043 281.697C294.058 280.084 292.527 279.079 290.607 279.023C287.681 278.937 284.952 281.114 284.848 284.665C284.743 288.263 287.292 290.595 290.267 290.682C292.114 290.736 293.768 290.016 294.849 288.342L296.975 290.349C295.278 292.557 292.848 293.566 290.137 293.487Z" fill="black"/>
<path d="M310.989 294.611C306.49 294.265 302.732 290.558 303.133 285.341C303.531 280.173 307.816 277.036 312.315 277.382C316.789 277.727 320.568 281.484 320.171 286.652C319.769 291.869 315.464 294.956 310.989 294.611ZM306.076 285.568C305.8 289.157 308.237 291.583 311.204 291.812C314.148 292.038 316.951 290.015 317.227 286.426C317.5 282.884 315.043 280.409 312.099 280.182C309.132 279.954 306.349 282.026 306.076 285.568Z" fill="black"/>
<path d="M326.093 295.737L328.16 279.065L333.304 279.702C338.497 280.346 340.576 284.836 340.06 289.004C339.543 293.172 336.43 297.018 331.238 296.375L326.093 295.737ZM329.261 293.397L331.595 293.686C334.835 294.088 336.782 291.451 337.13 288.641C337.481 285.807 336.234 282.798 332.995 282.397L330.661 282.108L329.261 293.397Z" fill="black"/>
<path d="M345.789 298.35L348.539 281.776L359.028 283.517L358.584 286.192L350.913 284.919L350.225 289.063L357.896 290.336L357.452 293.011L349.781 291.738L349.051 296.142L356.722 297.415L356.278 300.09L345.789 298.35Z" fill="black"/>
<path d="M365.765 302.157C364.401 301.883 363.356 300.499 363.659 298.993C363.961 297.487 365.453 296.636 366.818 296.909C368.183 297.183 369.208 298.539 368.906 300.045C368.604 301.551 367.13 302.431 365.765 302.157Z" fill="black"/>
<path d="M394.963 308.989C390.65 307.839 387.639 303.483 388.987 298.428C390.324 293.419 395.15 291.155 399.464 292.305C402.13 293.017 404.216 294.79 405.123 297.442L402.444 298.64C401.855 296.843 400.595 295.513 398.74 295.019C395.911 294.264 392.755 295.757 391.84 299.189C390.912 302.667 392.858 305.521 395.733 306.288C397.519 306.765 399.294 306.443 400.73 305.063L402.339 307.504C400.181 309.263 397.584 309.688 394.963 308.989Z" fill="black"/>
<path d="M407.738 312.334L412.766 296.304L419.087 298.287C422.224 299.271 423.113 301.889 422.452 303.996C421.784 306.125 419.559 307.767 416.422 306.782L412.826 305.655L412.611 306.342L419.549 308.518L419.325 315.969L416.6 315.114L416.745 310.481L411.799 308.929L410.463 313.189L407.738 312.334ZM413.638 303.067L417.256 304.202C418.493 304.59 419.37 303.959 419.635 303.112C419.894 302.288 419.534 301.269 418.298 300.881L414.68 299.746L413.638 303.067Z" fill="black"/>
<path d="M425.697 318.131L431.363 302.315L441.372 305.9L440.458 308.454L433.137 305.831L431.721 309.785L439.041 312.407L438.127 314.961L430.806 312.338L429.301 316.541L436.621 319.163L435.706 321.716L425.697 318.131Z" fill="black"/>
<path d="M441.252 323.782L452.59 310.25L455.681 311.503L454.775 329.264L452.017 328.146L452.335 323.976L446.552 321.632L443.966 324.882L441.252 323.782ZM448.327 319.425L452.531 321.129L453.11 313.439L448.327 319.425Z" fill="black"/>
<path d="M463.864 333.281L469.675 320.447L465.652 318.626L466.77 316.155L477.418 320.976L476.299 323.446L472.276 321.625L466.466 334.459L463.864 333.281Z" fill="black"/>
<path d="M476.148 338.983L483.651 323.952L493.164 328.7L491.953 331.127L484.996 327.654L483.12 331.412L490.077 334.885L488.866 337.311L481.908 333.838L479.915 337.832L486.872 341.305L485.661 343.732L476.148 338.983Z" fill="black"/>
<path d="M494.121 348.498C492.897 347.835 492.306 346.205 493.038 344.854C493.77 343.504 495.446 343.129 496.67 343.792C497.894 344.455 498.475 346.053 497.744 347.404C497.012 348.754 495.345 349.161 494.121 348.498Z" fill="black"/>
<path d="M665.337 506.039C661.528 503.71 659.879 498.679 662.609 494.215C665.313 489.793 670.584 488.993 674.393 491.322C676.747 492.762 678.243 495.055 678.359 497.855L675.45 498.242C675.396 496.352 674.566 494.72 672.928 493.718C670.43 492.19 666.98 492.725 665.127 495.755C663.249 498.827 664.304 502.116 666.843 503.669C668.419 504.633 670.212 504.829 671.982 503.914L672.831 506.712C670.261 507.785 667.65 507.454 665.337 506.039Z" fill="black"/>
<path d="M683.749 516.608C679.779 514.464 677.851 509.549 680.338 504.946C682.802 500.385 687.992 499.26 691.962 501.405C695.91 503.538 697.836 508.507 695.372 513.068C692.886 517.671 687.697 518.742 683.749 516.608ZM682.935 506.349C681.224 509.516 682.465 512.723 685.083 514.138C687.681 515.541 691.064 514.832 692.775 511.665C694.463 508.539 693.224 505.279 690.627 503.876C688.009 502.461 684.624 503.224 682.935 506.349Z" fill="black"/>
<path d="M697.578 523.514L704.834 508.362L707.41 509.596L701.325 522.302L707.537 525.277L706.366 527.723L697.578 523.514Z" fill="black"/>
<path d="M713.096 530.774L719.719 515.335L722.344 516.461L716.79 529.408L723.12 532.123L722.051 534.616L713.096 530.774Z" fill="black"/>
<path d="M727.67 536.942L738.667 523.132L741.789 524.308L741.325 542.085L738.54 541.036L738.754 536.86L732.915 534.66L730.41 537.974L727.67 536.942ZM734.634 532.41L738.879 534.009L739.267 526.307L734.634 532.41Z" fill="black"/>
<path d="M747.83 544.332L752.999 528.347L759.987 530.607C762.819 531.522 763.607 533.921 762.979 535.862C762.344 537.826 760.301 539.309 757.469 538.393L753.199 537.013L752.977 537.698L757.476 539.152C760.17 540.024 760.912 542.332 760.307 544.205C759.694 546.1 757.741 547.537 755.046 546.665L747.83 544.332ZM751.382 542.63L755.904 544.092C756.726 544.358 757.306 543.89 757.498 543.296C757.682 542.725 757.486 542.006 756.664 541.74L752.143 540.278L751.382 542.63ZM754.033 534.432L758.326 535.82C759.285 536.131 759.956 535.616 760.17 534.954C760.377 534.314 760.134 533.504 759.175 533.194L754.882 531.806L754.033 534.432Z" fill="black"/>
<path d="M773.488 552.318C769.13 551.151 766.117 546.816 767.47 541.762C768.811 536.754 773.6 534.459 777.958 535.626C782.294 536.787 785.318 541.174 783.977 546.182C782.623 551.236 777.824 553.479 773.488 552.318ZM770.322 542.525C769.39 546.003 771.34 548.836 774.215 549.605C777.066 550.369 780.194 548.896 781.125 545.418C782.044 541.987 780.083 539.102 777.232 538.338C774.357 537.569 771.241 539.094 770.322 542.525Z" fill="black"/>
<path d="M788.545 555.848L792.056 539.419L798.534 540.803C801.75 541.49 802.879 544.014 802.418 546.173C801.951 548.356 799.889 550.198 796.673 549.51L792.989 548.723L792.838 549.427L799.95 550.947L800.421 558.386L797.628 557.789L797.341 553.163L792.271 552.079L791.338 556.445L788.545 555.848ZM793.555 546.071L797.264 546.863C798.531 547.134 799.345 546.425 799.531 545.556C799.711 544.711 799.258 543.731 797.991 543.46L794.283 542.668L793.555 546.071Z" fill="black"/>
<path d="M806.007 559.473L814.087 543.776L817.378 544.318L820.405 561.842L817.469 561.359L816.861 557.221L810.703 556.208L808.896 559.948L806.007 559.473ZM811.949 553.664L816.425 554.401L815.296 546.772L811.949 553.664Z" fill="black"/>
<path d="M830.531 563.15L832.19 549.16L827.804 548.639L828.124 545.946L839.73 547.323L839.411 550.016L835.026 549.496L833.367 563.486L830.531 563.15Z" fill="black"/>
<path d="M844.252 564.626L845.518 547.874L856.12 548.676L855.915 551.38L848.161 550.794L847.845 554.982L855.599 555.568L855.394 558.272L847.64 557.686L847.304 562.137L855.058 562.724L854.853 565.428L844.252 564.626Z" fill="black"/>
<path d="M864.771 566.136C863.38 566.084 862.128 564.883 862.186 563.349C862.244 561.814 863.582 560.735 864.973 560.788C866.364 560.84 867.592 562.016 867.534 563.55C867.476 565.085 866.162 566.189 864.771 566.136Z" fill="black"/>
<path d="M895.215 566.192C890.753 566.339 886.61 563.041 886.438 557.812C886.268 552.631 890.233 549.067 894.695 548.92C897.453 548.829 899.963 549.924 901.598 552.199L899.38 554.121C898.297 552.572 896.706 551.664 894.787 551.727C891.861 551.823 889.272 554.165 889.389 557.715C889.507 561.313 892.196 563.482 895.17 563.384C897.017 563.324 898.623 562.502 899.599 560.765L901.845 562.637C900.288 564.945 897.925 566.103 895.215 566.192Z" fill="black"/>
<path d="M916.406 564.907C911.911 565.297 907.599 562.249 907.148 557.037C906.701 551.872 910.419 548.081 914.914 547.692C919.386 547.305 923.725 550.398 924.172 555.562C924.624 560.775 920.877 564.52 916.406 564.907ZM910.089 556.782C910.4 560.369 913.198 562.367 916.163 562.11C919.104 561.855 921.542 559.404 921.231 555.817C920.925 552.278 918.098 550.235 915.157 550.489C912.192 550.746 909.782 553.243 910.089 556.782Z" fill="black"/>
<path d="M931.769 563.097L929.446 546.459L934.58 545.742C939.761 545.018 942.933 548.816 943.514 552.976C944.095 557.135 942.085 561.657 936.903 562.38L931.769 563.097ZM934.222 560.016L936.552 559.691C939.784 559.24 940.982 556.189 940.59 553.384C940.195 550.555 938.211 547.973 934.979 548.424L932.649 548.749L934.222 560.016Z" fill="black"/>
<path d="M951.695 560.115L948.605 543.601L959.056 541.646L959.554 544.312L951.911 545.742L952.684 549.87L960.327 548.44L960.826 551.106L953.182 552.536L954.003 556.924L961.647 555.494L962.146 558.159L951.695 560.115Z" fill="black"/>
<path d="M971.911 556.291C970.553 556.598 969.035 555.761 968.696 554.263C968.356 552.765 969.371 551.378 970.729 551.071C972.086 550.764 973.576 551.583 973.915 553.081C974.255 554.579 973.268 555.983 971.911 556.291Z" fill="black"/>
<path d="M1001.34 548.506C997.069 549.797 992.217 547.677 990.705 542.668C989.206 537.706 992.12 533.241 996.393 531.95C999.035 531.152 1001.74 531.563 1003.91 533.341L1002.26 535.769C1000.81 534.551 999.043 534.083 997.205 534.638C994.402 535.485 992.504 538.415 993.531 541.815C994.572 545.261 997.728 546.665 1000.58 545.804C1002.35 545.27 1003.69 544.063 1004.18 542.133L1006.83 543.363C1005.92 545.995 1003.94 547.722 1001.34 548.506Z" fill="black"/>
<path d="M1014.14 544.174L1008.5 528.347L1014.74 526.126C1017.84 525.023 1020.13 526.578 1020.87 528.659C1021.61 530.761 1020.83 533.411 1017.73 534.514L1014.18 535.778L1014.42 536.456L1021.27 534.017L1025.58 540.102L1022.89 541.059L1020.21 537.272L1015.33 539.011L1016.83 543.216L1014.14 544.174ZM1013.27 533.223L1016.84 531.951C1018.06 531.516 1018.38 530.485 1018.09 529.649C1017.8 528.835 1016.9 528.238 1015.67 528.672L1012.1 529.944L1013.27 533.223Z" fill="black"/>
<path d="M1032.11 537.584L1025.77 522.026L1035.62 518.014L1036.64 520.525L1029.44 523.46L1031.02 527.349L1038.22 524.415L1039.25 526.926L1032.05 529.861L1033.73 533.995L1040.93 531.06L1041.96 533.572L1032.11 537.584Z" fill="black"/>
<path d="M1047.66 531.149L1045.53 513.624L1048.56 512.224L1060.9 525.023L1058.2 526.273L1055.38 523.191L1049.71 525.81L1050.32 529.92L1047.66 531.149ZM1049.32 523.006L1053.43 521.102L1048.21 515.424L1049.32 523.006Z" fill="black"/>
<path d="M1070.02 520.418L1063.53 507.91L1059.61 509.943L1058.36 507.535L1068.74 502.156L1069.99 504.564L1066.07 506.596L1072.55 519.103L1070.02 520.418Z" fill="black"/>
<path d="M1082.2 513.934L1073.84 499.362L1083.06 494.072L1084.41 496.424L1077.67 500.293L1079.76 503.936L1086.5 500.067L1087.85 502.419L1081.1 506.289L1083.33 510.161L1090.07 506.291L1091.42 508.644L1082.2 513.934Z" fill="black"/>
<path d="M1100.02 503.66C1098.84 504.398 1097.13 504.108 1096.32 502.805C1095.51 501.503 1096.01 499.859 1097.19 499.121C1098.37 498.384 1100.04 498.666 1100.86 499.969C1101.67 501.271 1101.2 502.922 1100.02 503.66Z" fill="black"/>
<path d="M1137.1 431.791C1133.6 434.56 1128.37 434.32 1125.22 430.14C1122.11 425.999 1123.24 420.726 1126.74 417.957C1128.91 416.244 1131.55 415.65 1134.18 416.542L1133.5 419.433C1131.74 418.808 1129.94 419.009 1128.43 420.2C1126.14 422.016 1125.4 425.471 1127.54 428.309C1129.71 431.185 1133.11 431.364 1135.45 429.518C1136.9 428.371 1137.72 426.745 1137.5 424.744L1140.38 424.942C1140.46 427.757 1139.23 430.108 1137.1 431.791Z" fill="black"/>
<path d="M1153.58 419.297C1149.92 421.946 1144.73 421.508 1141.75 417.202C1138.81 412.934 1140.11 407.722 1143.76 405.073C1147.4 402.438 1152.64 402.901 1155.59 407.168C1158.56 411.475 1157.21 416.662 1153.58 419.297ZM1144.14 415.468C1146.19 418.432 1149.57 418.733 1151.98 416.986C1154.37 415.252 1155.24 411.865 1153.2 408.902C1151.18 405.978 1147.75 405.651 1145.36 407.384C1142.95 409.132 1142.13 412.544 1144.14 415.468Z" fill="black"/>
<path d="M1165.61 410.484L1156.6 396.305L1158.97 394.717L1166.52 406.607L1172.25 402.778L1173.7 405.066L1165.61 410.484Z" fill="black"/>
<path d="M1179.53 401.288L1170.97 386.828L1173.4 385.318L1180.57 397.444L1186.42 393.801L1187.8 396.135L1179.53 401.288Z" fill="black"/>
<path d="M1192.57 393.201L1189.23 375.748L1192.12 374.085L1205.22 385.926L1202.64 387.409L1199.63 384.546L1194.22 387.657L1195.11 391.741L1192.57 393.201ZM1193.63 384.87L1197.56 382.608L1192 377.333L1193.63 384.87Z" fill="black"/>
<path d="M1210.77 382.873L1203.27 367.84L1209.76 364.418C1212.4 363.031 1214.62 364.163 1215.54 365.989C1216.46 367.836 1216.05 370.355 1213.42 371.741L1209.45 373.833L1209.77 374.477L1213.95 372.274C1216.46 370.954 1218.59 372.055 1219.47 373.816C1220.36 375.599 1219.98 378.02 1217.48 379.339L1210.77 382.873ZM1212.08 379.116L1216.29 376.901C1217.05 376.499 1217.13 375.75 1216.85 375.192C1216.59 374.655 1215.95 374.287 1215.18 374.689L1210.98 376.904L1212.08 379.116ZM1208.24 371.406L1212.23 369.304C1213.12 368.834 1213.23 367.987 1212.92 367.365C1212.62 366.763 1211.89 366.364 1211 366.834L1207 368.936L1208.24 371.406Z" fill="black"/>
<path d="M1234.31 371.186C1230.24 373.126 1225.2 371.754 1223.05 366.984C1220.92 362.258 1223.14 357.373 1227.21 355.432C1231.26 353.502 1236.34 354.908 1238.47 359.634C1240.62 364.404 1238.36 369.255 1234.31 371.186ZM1225.71 365.714C1227.19 368.996 1230.47 369.906 1233.16 368.626C1235.82 367.356 1237.29 364.186 1235.81 360.904C1234.35 357.665 1231.03 356.722 1228.36 357.992C1225.68 359.272 1224.25 362.476 1225.71 365.714Z" fill="black"/>
<path d="M1247.65 364.742L1241.36 349.167L1247.45 346.56C1250.47 345.266 1252.81 346.694 1253.63 348.741C1254.47 350.81 1253.81 353.521 1250.78 354.815L1247.32 356.298L1247.59 356.965L1254.27 354.104L1258.82 359.964L1256.19 361.087L1253.37 357.44L1248.6 359.48L1250.28 363.618L1247.65 364.742ZM1246.3 353.783L1249.79 352.291C1250.98 351.781 1251.25 350.725 1250.92 349.902C1250.6 349.101 1249.68 348.555 1248.49 349.065L1245 350.557L1246.3 353.783Z" fill="black"/>
<path d="M1263.54 358.005L1262.88 340.264L1265.99 339.067L1277.16 352.769L1274.38 353.837L1271.83 350.548L1266.01 352.787L1266.27 356.954L1263.54 358.005ZM1265.85 349.944L1270.08 348.316L1265.38 342.256L1265.85 349.944Z" fill="black"/>
<path d="M1286.22 349.558L1281.88 336.156L1277.7 337.593L1276.87 335.013L1287.92 331.209L1288.75 333.789L1284.58 335.226L1288.92 348.628L1286.22 349.558Z" fill="black"/>
<path d="M1298.79 345.334L1294.14 329.192L1304.3 326.072L1305.05 328.677L1297.62 330.959L1298.78 334.995L1306.21 332.713L1306.96 335.319L1299.53 337.601L1300.77 341.89L1308.2 339.608L1308.95 342.214L1298.79 345.334Z" fill="black"/>
<path d="M1318.05 339.885C1316.71 340.254 1315.17 339.481 1314.79 337.993C1314.4 336.506 1315.37 335.07 1316.72 334.702C1318.06 334.333 1319.57 335.089 1319.95 336.576C1320.33 338.064 1319.39 339.516 1318.05 339.885Z" fill="black"/>
<path d="M1346.75 332.857C1342.38 333.797 1337.77 331.281 1336.74 326.151C1335.72 321.068 1339.04 316.844 1343.4 315.905C1346.1 315.324 1348.74 315.956 1350.73 317.91L1348.86 320.202C1347.54 318.866 1345.83 318.254 1343.95 318.658C1341.09 319.274 1338.93 322.047 1339.63 325.53C1340.33 329.059 1343.33 330.72 1346.24 330.094C1348.05 329.705 1349.49 328.608 1350.17 326.72L1352.68 328.167C1351.53 330.722 1349.4 332.286 1346.75 332.857Z" fill="black"/>
<path d="M1366.87 328.977C1362.42 329.738 1357.92 327.053 1357.1 321.886C1356.29 316.765 1359.72 312.671 1364.17 311.91C1368.59 311.152 1373.13 313.88 1373.94 319.001C1374.76 324.168 1371.3 328.219 1366.87 328.977ZM1360.01 321.387C1360.57 324.943 1363.5 326.706 1366.43 326.203C1369.34 325.705 1371.6 323.055 1371.03 319.499C1370.48 315.991 1367.52 314.185 1364.61 314.683C1361.68 315.185 1359.46 317.879 1360.01 321.387Z" fill="black"/>
<path d="M1381.36 326.42L1379.4 309.736L1384.54 309.074C1389.73 308.405 1392.81 312.242 1393.3 316.413C1393.79 320.584 1391.69 325.09 1386.5 325.758L1381.36 326.42ZM1383.87 323.362L1386.21 323.062C1389.44 322.645 1390.71 319.603 1390.37 316.79C1390.04 313.954 1388.12 311.347 1384.88 311.764L1382.55 312.064L1383.87 323.362Z" fill="black"/>
<path d="M1400.69 324.071L1399.32 307.328L1409.91 306.358L1410.13 309.061L1402.38 309.771L1402.73 313.956L1410.47 313.247L1410.69 315.95L1402.95 316.659L1403.31 321.108L1411.06 320.399L1411.28 323.101L1400.69 324.071Z" fill="black"/>
<path d="M1420.62 322.699C1419.23 322.785 1417.88 321.714 1417.79 320.18C1417.71 318.646 1418.95 317.44 1420.34 317.355C1421.72 317.27 1423.05 318.318 1423.14 319.852C1423.22 321.385 1422.01 322.614 1420.62 322.699Z" fill="black"/>
<g clip-path="url(#clip1_190_20046)">
</g>
</g>
<defs>
<clipPath id="clip0_190_20046">
<rect width="1462" height="649" fill="white"/>
</clipPath>
<clipPath id="clip1_190_20046">
<rect width="1440" height="649" fill="white" transform="translate(4 -207)"/>
</clipPath>
</defs>
</svg>
