<svg width="21" height="20" viewBox="0 0 21 20" fill="none" xmlns="http://www.w3.org/2000/svg">
<path fill-rule="evenodd" clip-rule="evenodd" d="M19.1645 5.1874C19.6045 5.1874 20.0265 5.0126 20.3377 4.70145C20.6488 4.3903 20.8236 3.9683 20.8236 3.52827C20.8236 3.08824 20.6488 2.66624 20.3377 2.35509C20.0265 2.04394 19.6045 1.86914 19.1645 1.86914H18.0363C17.0987 1.86914 16.174 2.08743 15.3354 2.50672C14.4969 2.92601 13.7674 3.53478 13.2049 4.28483L11.1525 7.02239L10.245 5.20731C9.74336 4.20413 8.97226 3.36047 8.01812 2.77087C7.06397 2.18127 5.96449 1.86903 4.84288 1.86914H4.23232C3.79229 1.86914 3.37029 2.04394 3.05914 2.35509C2.74799 2.66624 2.57319 3.08824 2.57319 3.52827C2.57319 3.9683 2.74799 4.3903 3.05914 4.70145C3.37029 5.0126 3.79229 5.1874 4.23232 5.1874H4.84288C5.87486 5.1874 6.81724 5.76975 7.27682 6.69223L8.92599 9.98892L5.87817 14.0538C5.62472 14.3917 5.29607 14.666 4.91825 14.8549C4.54043 15.0438 4.12382 15.1422 3.7014 15.1422H2.57319C2.13316 15.1422 1.71116 15.317 1.40001 15.6281C1.08886 15.9393 0.914062 16.3613 0.914062 16.8013C0.914062 17.2413 1.08886 17.6633 1.40001 17.9745C1.71116 18.2856 2.13316 18.4604 2.57319 18.4604H3.7014C4.63896 18.4604 5.56364 18.2421 6.40222 17.8228C7.2408 17.4036 7.97024 16.7948 8.53278 16.0447L10.5851 13.3072L11.4927 15.1223C11.9943 16.1254 12.7654 16.9691 13.7195 17.5587C14.6737 18.1483 15.7732 18.4605 16.8948 18.4604H17.5053C17.9454 18.4604 18.3674 18.2856 18.6785 17.9745C18.9897 17.6633 19.1645 17.2413 19.1645 16.8013C19.1645 16.3613 18.9897 15.9393 18.6785 15.6281C18.3674 15.317 17.9454 15.1422 17.5053 15.1422H16.8948C16.3894 15.1421 15.8939 15.0013 15.464 14.7356C15.0341 14.4698 14.6867 14.0895 14.4608 13.6373L12.8117 10.3407L15.8595 6.27579C16.1129 5.93785 16.4416 5.66357 16.8194 5.47466C17.1972 5.28575 17.6138 5.1874 18.0363 5.1874H19.1645Z" fill="#009EB8"/>
</svg>
